# AST/ASF file generated using VICON BodyLanguage
# -----------------------------------------------
:version 1.10
:name VICON
:units
  mass 1.0
  length 0.45
  angle deg
:documentation
   .ast/.asf automatically generated from VICON data using
   VICON BodyBuilder and BodyLanguage model FoxedUp or BRILLIANT.MOD
:root
   order TX TY TZ RX RY RZ
   axis XYZ
   position 0 0 0  
   orientation 0 0 0 
:bonedata
  begin
     id 1 
     name lhipjoint
     direction 0.710188 -0.616876 0.339259 
     length 2.5669 
     axis 0 0 0  XYZ
  end
  begin
     id 2 
     name lfemur
     direction 0.34202 -0.939693 0  
     length 7.12796  
     axis 0 0 20  XYZ
    dof rx ry rz
    limits (-160.0 20.0)
           (-70.0 70.0)
           (-60.0 70.0)
  end
  begin
     id 3 
     name ltibia
     direction 0.34202 -0.939693 0   
     length 7.58108   
     axis 0 0 20   XYZ
    dof rx
    limits (-10.0 170.0)
  end
  begin
     id 4 
     name lfoot
     direction 0.0669471 -0.183936 0.980656   
     length 2.17365   
     axis -90 7.62852e-016 20   XYZ
    dof rx rz
    limits (-45.0 90.0)
           (-70.0 20.0)
  end
  begin
     id 5 
     name ltoes
     direction 1.53508e-011 -4.21705e-011 1   
     length 1.09427   
     axis -90 7.62852e-016 20   XYZ
    dof rx
    limits (-90.0 20.0)
  end
  begin
     id 6 
     name rhipjoint
     direction -0.700191 -0.625589 0.34405   
     length 2.53115  
     axis 0 0 0  XYZ 
  end
  begin
     id 7 
     name rfemur
     direction -0.34202 -0.939693 0   
     length 7.33006   
     axis 0 0 -20   XYZ
    dof rx ry rz
    limits (-160.0 20.0)
           (-70.0 70.0)
           (-70.0 60.0)
  end
  begin
     id 8 
     name rtibia
     direction -0.34202 -0.939693 0   
     length 7.64926   
     axis 0 0 -20   XYZ
    dof rx
    limits (-10.0 170.0)
 end
 begin
     id 9 
     name rfoot
     direction -0.0688927 -0.189281 0.979503   
     length 2.20493  
     axis -90 -7.62852e-016 -20   XYZ
    dof rx rz
    limits (-45.0 90.0)
           (-20.0 70.0)
  end
  begin
     id 10 
     name rtoes
     direction -1.53567e-011 -4.21933e-011 1   
     length 1.10919   
     axis -90 -7.62852e-016 -20   XYZ
    dof rx
    limits (-90.0 20.0)
  end
  begin
     id 11 
     name lowerback
     direction -0.0167868 0.989873 -0.140959   
     length 2.14596   
     axis 0 0 0   XYZ
    dof rx ry rz
    limits (-20.0 45.0)
           (-30.0 30.0)
           (-30.0 30.0)
  end
  begin
     id 12 
     name upperback
     direction 0.0129109 0.998033 0.0613525   
     length 2.10457   
     axis 0 0 0   XYZ
    dof rx ry rz
    limits (-20.0 45.0)
           (-30.0 30.0)
           (-30.0 30.0)
  end
  begin
     id 13 
     name thorax
     direction 0.0177047 0.991119 0.131797   
     length 2.17652   
     axis 0 0 0   XYZ
    dof rx ry rz
    limits (-20.0 45.0)
           (-30.0 30.0)
           (-30.0 30.0)
  end
  begin
     id 14 
     name lowerneck
     direction -0.0336893 0.997548 0.0613464   
     length 1.8912   
     axis 0 0 0   XYZ
    dof rx ry rz
    limits (-20.0 45.0)
           (-30.0 30.0)
           (-30.0 30.0)
  end
  begin
     id 15 
     name upperneck
     direction 0.0435909 0.997179 -0.0611028   
     length 1.8829   
     axis 0 0 0   XYZ
    dof rx ry rz
    limits (-20.0 45.0)
           (-30.0 30.0)
           (-30.0 30.0)
  end
  begin
     id 16
     name head
     direction 0.0175076 0.999444 -0.0283782  
     length 1.93197  
     axis 0 0 0   XYZ
    dof rx ry rz
    limits (-20.0 45.0)
           (-30.0 30.0)
           (-30.0 30.0)
  end
  begin
     id 17 
     name lclavicle
     direction 0.919164 0.389875 0.0559876  
     length 3.60004  
     axis 0 0 0   XYZ
    dof ry rz
    limits (-20.0 10.0)
           (0.0 20.0)
  end
  begin
     id 18 
     name lhumerus
     direction 1 -4.48958e-011 6.89191e-027   
     length 5.43301   
     axis 180 -30 -90   XYZ
    dof rx ry rz
    limits (-60.0 90.0)
           (-90.0 90.0)
           (-90.0 90.0)
  end
  begin
     id 19
     name lradius
     direction 1 -4.4897e-011 3.24727e-027   
     length 3.15936   
     axis 180 -30 -90   XYZ
    dof rx
    limits (-10.0 170.0)
  end
  begin
     id 20
     name lwrist
     direction 1 -4.4897e-011 9.00228e-027   
     length 1.57968   
     axis -6.29373e-015 90 90   XYZ
    dof ry
    limits (-180.0 0.0)
 end
  begin
     id 21 
     name lhand
     direction 1 -4.48968e-011 1.80042e-026   
     length 0.712827   
     axis -1.14882e-014 90 90   XYZ
    dof rx rz
    limits (-90.0 90.0)
           (-45.0 45.0)
  end
  begin
     id 22 
     name lfingers
     direction 1 -4.49019e-011 3.60267e-026   
     length 0.574699   
     axis -2.29769e-014 90 90   XYZ
    dof rx
    limits (0.0 90.0)
  end
  begin
     id 23
     name lthumb
     direction 0.707107 -6.3498e-011 0.707107   
     length 0.825157   
     axis -90 45 5.37419e-014   XYZ
    dof rx rz
    limits (-45.0 45.0)
           (-45.0 45.0)
  end
  begin
     id 24 
     name rclavicle
     direction -0.890334 0.455305 -0.00132111   
     length 3.51494  
     axis 0 0 0   XYZ 
    dof ry rz
    limits (-10.0 20.0)
           (-20.0 0.0)
  end
  begin
     id 25 
     name rhumerus
     direction -1 -4.48967e-011 5.07175e-028  
     length 5.34194   
     axis 180 30 90   XYZ
    dof rx ry rz
    limits (-90.0 60.0)
           (-90.0 90.0)
           (-90.0 90.0)
  end
  begin
     id 26 
     name rradius
     direction -1 -4.48955e-011 3.30467e-027   
     length 3.19351   
     axis 180 30 90   XYZ
    dof rx
    limits (-10.0 170.0)
  end
  begin
     id 27 
     name rwrist
     direction -1 -4.48968e-011 9.00208e-027   
     length 1.59676   
     axis -6.29373e-015 -90 -90   XYZ
    dof ry
    limits (-180.0 0.0)
  end
  begin
     id 28
     name rhand
     direction -1 -4.49e-011 1.80099e-026   
     length 0.743862   
     axis -1.14882e-014 -90 -90   XYZ
    dof rx rz
    limits (-90.0 90.0)
           (-45.0 45.0)
  end
  begin
     id 29
     name rfingers
     direction -1 -4.49009e-011 3.6023e-026   
     length 0.599721   
     axis -2.29769e-014 -90 -90   XYZ
    dof rx
    limits (0.0 90.0)
  end
  begin
     id 30
     name rthumb
     direction -0.707107 -6.35025e-011 0.707107   
     length 0.861083   
     axis -90 -45 -5.37419e-014   XYZ
    dof rx rz
    limits (-45.0 45.0)
           (-45.0 45.0)
  end
:hierarchy
  begin
    root lhipjoint rhipjoint lowerback
    lhipjoint lfemur
    lfemur ltibia
    ltibia lfoot
    lfoot ltoes
    rhipjoint rfemur
    rfemur rtibia
    rtibia rfoot
    rfoot rtoes
    lowerback upperback
    upperback thorax
    thorax lowerneck lclavicle rclavicle
    lowerneck upperneck
    upperneck head
    lclavicle lhumerus
    lhumerus lradius
    lradius lwrist
    lwrist lhand lthumb
    lhand lfingers
    rclavicle rhumerus
    rhumerus rradius
    rradius rwrist
    rwrist rhand rthumb
    rhand rfingers
  end

#!OML:ASF H:\Martial Arts Walks\Project 1\Capture day 1\Session 1\male.ASF
:FULLY-SPECIFIED
:DEGREES
507
root -4.1175 12.9637 -3.94029 -153.166 -59.333 158.567
lowerback 24.5644 6.47383 -2.69609
upperback 1.81071 6.76371 -4.78863
thorax -11.3511 2.98011 -6.1182
lowerneck -1.05121 13.7777 4.50491
upperneck 8.47073 18.7071 -5.89421
head 4.08815 9.19676 -1.84134
rclavicle -7.31528e-014 3.18055e-014
rhumerus -38.6159 31.664 -79.9944
rradius 101.753
rwrist 9.4105
rhand -18.4999 -35.2862
rfingers 7.12502
rthumb 7.78782 -65.1228
lclavicle -7.31528e-014 3.18055e-014
lhumerus -22.5988 -12.9054 74.2571
lradius 107.206
lwrist 23.222
lhand -34.7387 14.7537
lfingers 7.12502
lthumb -7.89257 44.5863
rfemur -68.7129 -32.2264 2.56473
rtibia 93.4813
rfoot -28.1334 5.42072
rtoes -13.1578
lfemur -42.6095 19.2421 -11.1531
ltibia 80.576
lfoot -30.5383 17.8474
ltoes -27.7553
508
root -4.12025 12.9127 -3.89141 -153.108 -59.3492 158.57
lowerback 24.5402 6.62106 -3.11095
upperback 1.69873 6.83173 -4.84484
thorax -11.5054 3.02415 -5.98392
lowerneck -1.13389 13.889 4.29614
upperneck 8.3638 18.8463 -5.76089
head 4.03218 9.26486 -1.75715
rclavicle -1.41137e-014 -7.95139e-016
rhumerus -38.879 31.307 -80.1825
rradius 101.704
rwrist 8.7774
rhand -18.5155 -35.5982
rfingers 7.12502
rthumb 7.77283 -65.4353
lclavicle -1.41137e-014 -7.95139e-016
lhumerus -22.0612 -13.4714 74.6428
lradius 107.007
lwrist 23.3361
lhand -35.1011 15.1553
lfingers 7.12502
lthumb -8.24236 44.9745
rfemur -69.1361 -32.3059 2.36472
rtibia 93.8026
rfoot -27.9887 5.77606
rtoes -12.3047
lfemur -43.3358 19.5997 -11.4004
ltibia 81.4602
lfoot -30.8634 17.6439
ltoes -27.3747
509
root -4.12304 12.8744 -3.84995 -153.103 -59.3732 158.652
lowerback 24.4836 6.79062 -3.47902
upperback 1.59195 6.94754 -4.88593
thorax -11.6307 3.09087 -5.87073
lowerneck -1.04264 13.9275 4.26165
upperneck 8.0705 18.9045 -5.93306
head 3.93125 9.29545 -1.82003
rclavicle 7.7526e-015 1.59028e-014
rhumerus -39.1684 31.0388 -80.3332
rradius 101.679
rwrist 8.43024
rhand -18.871 -36.3919
rfingers 7.12502
rthumb 7.42963 -66.2415
lclavicle 7.7526e-015 1.59028e-014
lhumerus -21.6131 -14.0353 75.0035
lradius 106.881
lwrist 23.3892
lhand -35.0734 15.3911
lfingers 7.12502
lthumb -8.21557 45.2114
rfemur -69.4551 -32.35 2.2723
rtibia 94.0355
rfoot -27.9228 5.86813
rtoes -11.9948
lfemur -43.9728 19.9838 -11.5932
ltibia 82.2355
lfoot -31.168 17.451
ltoes -27.0282
510
root -4.12516 12.839 -3.81287 -153.2 -59.4176 158.912
lowerback 24.3233 6.91618 -3.8014
upperback 1.50829 7.03464 -4.88971
thorax -11.6757 3.14772 -5.71522
lowerneck -0.894748 14.0193 4.23844
upperneck 7.70825 19.0333 -6.13739
head 3.8056 9.36363 -1.89674
rclavicle 1.34975e-013 -8.34896e-014
rhumerus -39.2565 30.9045 -80.3881
rradius 101.68
rwrist 7.69551
rhand -18.6119 -36.3724
rfingers 7.12502
rthumb 7.67975 -66.213
lclavicle 1.34975e-013 -8.34896e-014
lhumerus -21.2298 -14.4009 75.2443
lradius 106.844
lwrist 23.1851
lhand -35.1909 15.4598
lfingers 7.12502
lthumb -8.32902 45.2756
rfemur -69.8088 -32.3675 2.40319
rtibia 94.2138
rfoot -28.0194 5.20164
rtoes -13.7129
lfemur -44.6193 20.3632 -11.6535
ltibia 82.9373
lfoot -31.3982 17.311
ltoes -26.8384
511
root -4.12812 12.8134 -3.77484 -153.595 -59.4669 159.386
lowerback 24.2431 6.99037 -3.95876
upperback 1.47172 7.10126 -4.84724
thorax -11.6967 3.18847 -5.59681
lowerneck -0.956309 14.0902 4.05191
upperneck 7.51769 19.1353 -6.25668
head 3.74878 9.40849 -1.9026
rclavicle 1.49486e-013 -1.24837e-013
rhumerus -39.3102 30.9741 -80.4821
rradius 101.698
rwrist 7.15934
rhand -18.7493 -36.8498
rfingers 7.12502
rthumb 7.54716 -66.6951
lclavicle 1.49486e-013 -1.24837e-013
lhumerus -20.9903 -14.6073 75.5401
lradius 106.867
lwrist 23.079
lhand -35.5797 15.1358
lfingers 7.12502
lthumb -8.70425 44.9364
rfemur -69.9718 -32.3011 2.54233
rtibia 94.2953
rfoot -27.9903 5.09691
rtoes -14.1191
lfemur -45.015 20.6941 -11.5235
ltibia 83.5261
lfoot -31.7306 17.0491
ltoes -26.6854
512
root -4.13333 12.7921 -3.74352 -154.249 -59.5515 160.036
lowerback 24.0809 6.80837 -4.30939
upperback 1.56698 6.82512 -4.54791
thorax -11.5958 3.09164 -4.94136
lowerneck -1.1286 14.4819 3.44535
upperneck 7.35503 19.6881 -6.46574
head 3.7111 9.65971 -1.83738
rclavicle 2.36554e-014 2.94201e-014
rhumerus -38.743 32.1718 -80.2331
rradius 101.691
rwrist 6.54604
rhand -18.7589 -37.1028
rfingers 7.12502
rthumb 7.53784 -66.9484
lclavicle 2.36554e-014 2.94201e-014
lhumerus -21.0277 -13.6951 75.7555
lradius 107.004
lwrist 22.8896
lhand -35.8359 14.6756
lfingers 7.12502
lthumb -8.95144 44.4657
rfemur -69.947 -32.2178 2.74537
rtibia 94.333
rfoot -27.952 5.15001
rtoes -14.0305
lfemur -45.1847 21.0986 -11.1989
ltibia 84.0308
lfoot -32.11 16.7678
ltoes -26.5587
513
root -4.14036 12.7748 -3.70595 -154.953 -59.6552 160.751
lowerback 24.1473 7.03287 -3.82778
upperback 1.45066 7.21219 -4.786
thorax -11.6547 3.23899 -5.6265
lowerneck -0.978558 14.2259 3.91791
upperneck 7.28689 19.3111 -6.27411
head 3.66804 9.49637 -1.88417
rclavicle 1.04561e-013 -6.08281e-014
rhumerus -39.2258 31.3334 -80.5695
rradius 101.843
rwrist 6.15627
rhand -18.6347 -37.206
rfingers 7.12502
rthumb 7.65776 -67.0474
lclavicle 1.04561e-013 -6.08281e-014
lhumerus -20.6938 -14.7932 75.7592
lradius 107.017
lwrist 22.5815
lhand -35.479 14.2286
lfingers 7.12502
lthumb -8.60706 44.0331
rfemur -69.9351 -32.204 2.99462
rtibia 94.3182
rfoot -27.8305 5.36379
rtoes -13.7107
lfemur -45.3813 21.4437 -10.9034
ltibia 84.4914
lfoot -32.3418 16.7032
ltoes -26.6443
514
root -4.15035 12.762 -3.67167 -155.771 -59.8176 161.505
lowerback 24.1661 7.07593 -3.48639
upperback 1.42943 7.36353 -4.7931
thorax -11.6349 3.29443 -5.87765
lowerneck -0.88537 14.2352 4.07309
upperneck 7.32222 19.3205 -6.27576
head 3.68248 9.50556 -1.91219
rclavicle 4.73108e-014 -9.93923e-015
rhumerus -39.2428 31.3055 -80.5095
rradius 101.961
rwrist 5.82355
rhand -18.2542 -36.9553
rfingers 7.12502
rthumb 8.02502 -66.783
lclavicle 4.73108e-014 -9.93923e-015
lhumerus -20.5908 -15.1402 75.7552
lradius 107.139
lwrist 22.4629
lhand -35.1332 13.9133
lfingers 7.12502
lthumb -8.27331 43.7313
rfemur -69.7449 -32.2844 3.27201
rtibia 94.2705
rfoot -27.7958 5.4811
rtoes -13.8134
lfemur -45.4287 21.6041 -10.527
ltibia 84.9019
lfoot -32.5349 16.7296
ltoes -26.5413
